<svg xmlns="http://www.w3.org/2000/svg" width="375" height="600" fill="none"><g filter="url(#a)"><path fill="#F1F1F1" fill-rule="evenodd" d="M77.594 464.405c-8.4 1.92-25.5 18.4-33 26.4v133.5h148.5c-.9-33.1-3.96-101.16-9-108.6-1.804-2.663-4.493-5.841-7.398-9.276-7.243-8.563-15.831-18.716-15.402-26.424l.031-.556c.617-11.075 1.963-35.225-4.231-39.944-5.04-3.84-10.9-17.4-13.2-23.7-5.33-.281-17.744 11.506-23.748 17.207l-1.152 1.093c-5.4 5.1-30.9 27.9-41.4 30.3Zm464.437-24.9c1.187 3.6 4.822 11.52 9.862 14.4 6.3 3.6 3.9 11.1 0 18.6-2.518 4.844 1.095 12.941 4.212 19.928 1.709 3.831 3.27 7.328 3.588 9.772.72 5.52-7.5 83.7-11.7 122.1h79.8v-126.3c-5.7-2.9-18.54-9.6-24.3-13.2-4.394-2.747-11.247-12.31-16.876-20.165-3.593-5.014-6.687-9.332-8.324-10.735-2.705-2.319-5.908-2.397-9.288-2.48-1.868-.046-3.79-.093-5.712-.52-3.168-.704-6.749-4.196-9.834-7.205-2.174-2.12-4.102-3.999-5.466-4.495-1.65-.6-3.75-.525-5.962.3Z" clip-rule="evenodd"/><path fill="#EAEAEA" d="M199.694 439.505c-4.5 0-17.7.3-25.5-5.4l-.137-.1c-7.858-5.743-24.496-17.902-30.163-18.2 2.3 6.3 8.16 19.86 13.2 23.7 6.194 4.719 4.848 28.869 4.231 39.944l-.031.556c-.429 7.708 8.159 17.861 15.402 26.424 2.905 3.435 5.594 6.613 7.398 9.276 5.04 7.44 8.1 75.5 9 108.6h354.899c4.2-38.4 12.42-116.58 11.7-122.1-.318-2.444-1.879-5.941-3.588-9.772-3.117-6.987-6.73-15.084-4.212-19.928 3.9-7.5 6.3-15 0-18.6-5.04-2.88-8.675-10.8-9.862-14.4-2.213.825-4.538 2.4-6.638 4.8-4.2 4.8-18 9.6-24.6 9.6-6.6 0-21.3-.3-27 3.6-5.7 3.9-10.8 5.1-18.3 8.4-7.5 3.3-7.8 6.6-25.2 18.9-17.399 12.3-97.199 4.2-102.899-12.3-5.7-16.5-11.1-15.3-15-15-3.9.3-9 15-14.1 18.3-5.1 3.3-31.8 1.5-34.8-3.3-3-4.8-21.9-10.5-28.2-9.9-6.3.6-20.1-2.7-25.2-10.8-5.1-8.1-15.9-12.3-20.4-12.3Z"/></g><g filter="url(#b)"><path fill="#ECECEC" fill-rule="evenodd" d="M-176.2 518.705c-12.24 5.52-45.3 30.5-60.3 42.3v43.5H5.3c-.8-12.9-4.44-41.1-12.6-50.7-8.788-10.339-8.223-18.673-7.898-23.469.052-.77.098-1.45.098-2.031 0-2.063 2.967-3.909 6.272-5.964 3.422-2.129 7.207-4.483 8.428-7.536 2.19-5.477-4.868-12.454-11.135-18.649-.599-.592-1.19-1.176-1.765-1.751-3.874-3.875-7.439-9.196-10.875-14.327-2.417-3.609-4.771-7.124-7.125-9.973-4.56-5.52-4.5-13.944-3.9-17.466-4.542 1.715-9.752 5.707-13.2 8.466-4.5 3.6-19.2 4.5-24.3 4.5-3.562 0-7.563 3.366-11.799 6.929-1.829 1.538-3.701 3.114-5.601 4.471-6.3 4.5-21.9 5.7-27 5.7-5.1 0-17.7 8.4-24.3 14.4-6.6 6-19.5 14.7-34.8 21.6ZM407 462.257c-3.6.716-10.68 3.228-10.2 7.548.6 5.4 6 6.3 10.2 6.3 4.2 0 11.1 6 11.4 12.3a429.627 429.627 0 0 1 .081 1.852c.247 5.809.509 11.996 3.219 15.248 3 3.6 18.3 9.6 23.4 11.1 5.1 1.5 5.7 8.1 4.2 21-1.2 10.32-7.1 48.9-9.9 66.9h188.099v-150.6c-6.3 11.7-61.8 37.2-68.4 37.2-.509 0-1.307-.004-2.348-.009-12.439-.055-59.592-.267-64.851 3.609-5.7 4.2-18.3 6.9-24.6 6.9-6.3 0-19.2-9.3-22.2-13.2-3-3.9-14.7-15.9-16.8-15.9-.344 0-.84.04-1.443.089-3.081.249-8.948.724-11.457-2.789-1.95-2.729-5.545-5.711-8.4-7.548Z" clip-rule="evenodd"/><path fill="#E5E5E5" d="M-15.1 465.605c-3.6-7.5-11.1-13.8-16.2-13.8-1.192 0-2.515.311-3.9.834-.6 3.522-.66 11.946 3.9 17.466 2.354 2.849 4.708 6.364 7.125 9.973 3.436 5.131 7 10.452 10.875 14.327.575.575 1.166 1.159 1.765 1.751C-5.268 502.351 1.79 509.328-.4 514.805c-1.221 3.053-5.006 5.407-8.428 7.536-3.305 2.055-6.272 3.901-6.272 5.964 0 .581-.046 1.261-.098 2.031-.325 4.796-.89 13.13 7.898 23.469 8.16 9.6 11.8 37.8 12.6 50.7h434.1c2.8-18 8.7-56.58 9.9-66.9 1.5-12.9.9-19.5-4.2-21-5.1-1.5-20.4-7.5-23.4-11.1-2.71-3.252-2.972-9.439-3.219-15.248l-.001-.02c-.026-.617-.052-1.229-.08-1.832-.3-6.3-7.2-12.3-11.4-12.3s-9.6-.9-10.2-6.3c-.48-4.32 6.6-6.832 10.2-7.548-1.54-.99-2.865-1.647-3.6-1.752-2.1-.3-8.4.3-12.6 4.2-4.2 3.9-11.1 10.5-13.8 10.5-2.7 0-6.6-1.2-12 .9s-16.2 14.7-20.7 18.6c-4.5 3.9-27.3 4.5-30.3 3.3-3-1.2-7.8-2.1-12.3-1.8-4.5.3-6.9 6.6-15 7.2-8.1.6-19.2 3.6-25.8 10.8-6.6 7.2-16.8 14.1-22.8 14.1s-11.1.6-20.1 4.2c-9 3.6-54-2.4-55.8-6.3-1.8-3.9-25.5-15.9-30-17.7-4.5-1.8-15 .9-22.8 1.8-7.8.9-14.1-.6-16.8-3.3-2.7-2.7-8.1-1.8-10.8-2.1-2.7-.3-7.2-9.9-13.2-12.6-6-2.7-14.4-2.4-19.8-3-5.4-.6-12.3-9.3-19.5-12.3-7.2-3-16.2 2.1-20.7 3-4.5.9-20.1-6.9-23.7-14.4Z"/></g><g filter="url(#c)"><path fill="#E5E5E5" fill-rule="evenodd" d="M-183.703 562.205c-3.12 2.16-36.3 39.7-52.5 58.2v54.9h458.4c-1.335-7.099-3.59-25.791-5.425-41.004-1.19-9.864-2.203-18.264-2.675-21.096-1.5-9-18-31.2-20.4-33.3-2.4-2.1-7.5-15.9-3.3-20.7 4.2-4.8 4.5-9.6 3.3-12.6-.572-1.429-3.05-4.765-5.715-8.352-2.93-3.944-6.086-8.192-7.185-10.548-1.68-3.6 1.7-9.493 3.6-11.989-2.695.341-5.377 1.124-7.8 2.389-6.9 3.6-12.9 5.4-20.7 5.4-7.8 0-30 14.4-35.1 18.3-5.1 3.9-22.2 9.3-26.7 4.8-4.5-4.5-14.1-6.3-17.1-6.3-3 0-8.7 5.1-11.1 8.1-2.4 3-10.2 5.1-16.2 1.2-6-3.9-18.3-6.3-23.1-6.3-4.418 0-14.424 5.335-19.967 8.29l-1.333.71c-5.1 2.7-18.9 7.2-26.7 9-7.8 1.8-20.1-3.6-25.8-9-5.7-5.4-17.4-9-21.6-9-4.2 0-9 3-13.8 6.3-4.8 3.3-11.1 6.3-16.2 6.6-5.1.3-15.6-4.5-18.3-6.6-2.7-2.1-13.8-3.3-16.8-3.3s-11.1.9-15 3.3c-3.9 2.4-13.5 5.4-18.6 4.5-4.236-.748-9.921 3.472-13.96 6.47a90.95 90.95 0 0 1-2.24 1.63Zm743.699-55.2c-.9 5.2-2.16 17.1 0 23.1 2.7 7.5 3.6 18 1.8 31.5-1.348 10.115 1.345 17.367 3.538 23.271l.001.001c.733 1.975 1.41 3.798 1.861 5.528.62 2.375 2.27 6.882 4.168 12.067 3.617 9.877 8.132 22.211 8.132 26.933 0 5.76-.8 39-1.2 45.9h50.1v-128.7c-5.6-4.8-19.08-15.48-28.2-19.8-4.174-1.978-9.917-5.001-15.8-8.098-10.184-5.36-20.787-10.942-24.4-11.702Z" clip-rule="evenodd"/><path fill="#DEDEDE" d="M217.997 532.205c-1.5-4.5-14.7-10.8-20.1-14.1-3.504-2.141-8.523-3.02-13.5-2.389-1.9 2.496-5.28 8.389-3.6 11.989 1.099 2.356 4.255 6.604 7.185 10.548 2.665 3.587 5.143 6.923 5.715 8.352 1.2 3 .9 7.8-3.3 12.6s.9 18.6 3.3 20.7c2.4 2.1 18.9 24.3 20.4 33.3.472 2.832 1.485 11.232 2.675 21.096 1.835 15.213 4.09 33.905 5.425 41.004h356.099c.4-6.9 1.2-40.14 1.2-45.9 0-4.722-4.515-17.056-8.132-26.933-1.898-5.185-3.548-9.692-4.168-12.067-.451-1.73-1.128-3.553-1.861-5.528l-.001-.001c-2.193-5.904-4.886-13.156-3.538-23.271 1.8-13.5.9-24-1.8-31.5-2.16-6-.9-17.9 0-23.1-5.7-1.2-17.1 2.4-24.9 11.1-7.8 8.7-18.9 12.9-23.1 10.8-4.2-2.1-16.8-4.2-23.4-2.1-6.6 2.1-11.7 3.6-18.9 3.3-7.2-.3-17.1 4.8-20.4 7.5-3.3 2.7-10.5 9-14.699 9-4.2 0-13.2 1.2-16.2 6.6-3 5.4-11.1 21-18 18.9-6.9-2.1-18.6-3.3-23.7-3-5.1.3-19.2-.3-21.3-2.1-2.1-1.8-6.3-5.4-10.2-3-3.9 2.4-9.9 2.1-12.3 2.1-2.4 0-5.7-3-10.5-4.5s-54.3-.3-57.6 0c-3.3.3-9-6.6-14.1-6.6s-8.1-4.8-8.7-8.4c-.6-3.6-7.2-7.8-11.7-8.1-4.5-.3-10.8-1.8-12.3-6.3Z"/></g><g filter="url(#d)"><path fill="#DDD" fill-rule="evenodd" d="M-95.8 670.805c-11.04 4.32-30.4 24.8-38.7 34.5H57.8c-5.1-9.301-9.3-31.8-9.6-36.6-.179-2.857 3.254-8.368 6.57-13.691 2.256-3.623 4.458-7.158 5.43-9.709 1.73-4.541.498-11.265-.886-18.822-.536-2.927-1.095-5.979-1.514-9.078-1.5-11.101 4.2-13.8 7.2-14.7 3-.9 7.2-3 8.4-7.8.96-3.84-.4-10.878-1.2-13.917-4.26.307-9.149.916-14.4 1.617-13.5 1.8-27.6 7.8-33.6 12.3-2.686 2.014-4.47 5.532-6.403 9.342-2.383 4.7-4.992 9.844-9.797 13.158-5.708 3.936-8.834 3.869-12.935 3.782-2.15-.046-4.567-.098-7.765.418-5.912.953-11.217 8.453-16.302 15.64-2.915 4.12-5.756 8.136-8.598 10.76-5.486 5.063-25.218 11.611-41.244 16.929-6.76 2.244-12.862 4.268-16.956 5.871Zm565.5-87.301c2 6.201 4.62 19.561-.9 23.401-6.9 4.8-13.2 6.6-23.7 5.7-10.5-.9-17.4 16.8-16.8 20.4.48 2.88 3.8 49.4 5.4 72.3h135v-41.1c-3.8-4.1-11.94-12.36-14.1-12.6-2.7-.3-11.7-2.4-13.5-6.3-.49-1.062-1.024-2.479-1.615-4.045-1.58-4.191-3.565-9.453-6.185-11.855-2.21-2.026-7.586-3.713-12.101-5.13-2.841-.891-5.341-1.675-6.499-2.37-.903-.542-2.486-1.682-4.331-3.011-4.284-3.086-9.982-7.189-11.869-7.189-.501 0-1.074.02-1.689.042-2.699.098-6.201.224-7.911-1.242-1.228-1.053-6.658-8.973-11.498-16.031-3.439-5.017-6.581-9.598-7.702-10.97Z" clip-rule="evenodd"/><path fill="#D3D3D3" d="M95 604.804c-5.1-3.6-4.2-19.199-8.4-22.199-2.566-1.833-7.709-2.099-14.4-1.617.8 3.039 2.16 10.077 1.2 13.917-1.2 4.8-5.4 6.9-8.4 7.8-3 .9-8.7 3.599-7.2 14.7.419 3.099.978 6.151 1.514 9.078 1.384 7.557 2.616 14.281.886 18.822-.972 2.551-3.174 6.086-5.43 9.709-3.316 5.323-6.749 10.834-6.57 13.691.3 4.8 4.5 27.299 9.6 36.6h375.9c-1.6-22.9-4.92-69.42-5.4-72.3-.6-3.6 6.3-21.3 16.8-20.4 10.5.9 16.8-.9 23.7-5.7 5.52-3.84 2.9-17.2.9-23.401-2.7-3.3-15.3-10.2-22.2-6.3-6.9 3.9-20.7 8.1-25.8 8.1-5.1 0-10.8-2.699-17.7-2.699-6.9 0-10.8 0-21 4.199-10.2 4.2-16.2 14.4-33.6 15.3-17.4.9-29.4.6-34.8 2.7-5.4 2.1-21.6 28.5-26.7 30.9-5.1 2.4-10.2-2.4-18.3 2.4-8.1 4.8-24.6 18-32.4 18-7.8 0-20.7-22.5-34.2-22.8-13.5-.3-27.6-15.899-34.5-15.899-6.9 0-20.7 4.2-30 4.2s-38.4-13.201-43.5-16.801Z"/></g><g filter="url(#e)"><path fill="#CECECE" d="M245.59 570.914h-99.6v26.743h99.6v-26.743Z"/><path fill="#DBDBDB" d="M202.392 580.686h-13.2v16.971h13.2v-16.971Z"/><path fill="#CECECE" d="M162.34 520.093h66.928c8.293 0 15.72-4.722 15.72-4.722s-4.86 12.343-16.041 12.343h-66.319c-11.148 0-16.04-12.343-16.04-12.343s7.467 4.722 15.752 4.722Z"/><path fill="#CECECE" d="M195.776 520h-28.188c1.522 3.529 4.155 7.714 8.072 7.714h40.256c3.917 0 6.55-4.185 8.072-7.714h-28.212ZM234.187 548.286h-76.8v13.885h76.8v-13.885ZM245.59 570.914h-99.6V574h99.6v-3.086Z"/><path fill="#DBDBDB" d="M159.789 570.914h-6V592h6v-21.086ZM160.988 592h-8.4v5.657h8.4V592Z"/><path fill="#CECECE" d="M225.187 527.714h-58.8v12.857h58.8v-12.857Z"/><path fill="#CECECE" d="M228.187 527.714h-64.8v2.057h64.8v-2.057Z"/><path fill="#DBDBDB" d="M228.187 527.714h-64.8v1.029h64.8v-1.029ZM231.789 592h6v-21.086h-6V592ZM230.59 597.657h8.4V592h-8.4v5.657ZM174.789 570.914h-6V592h6v-21.086ZM175.988 592h-8.4v5.657h8.4V592ZM216.789 592h6v-21.086h-6V592ZM215.59 597.657h8.4V592h-8.4v5.657Z"/><path fill="#CECECE" d="M195.793 494.286 162.789 520h66l-32.996-25.714Z"/><path fill="#CECECE" d="M195.795 500.971 171.192 520h49.199l-24.596-19.029ZM249.187 570.914h-106.8V574h106.8v-3.086Z"/><path fill="#DBDBDB" d="M249.187 570.914h-106.8v1.029h106.8v-1.029ZM226.392 553.943h-1.2v8.228h1.2v-8.228ZM205.987 553.943h-.6v8.228h.6v-8.228ZM186.188 553.943h-.6v8.228h.6v-8.228ZM166.392 553.943h-1.2v8.228h1.2v-8.228ZM234.187 553.428h-76.8v.515h76.8v-.515Z"/><path fill="#D7D7D7" d="M219.188 532.857h-.6v7.714h.6v-7.714ZM203.59 532.857h-.6v7.714h.6v-7.714ZM188.59 532.857h-.6v7.714h.6v-7.714ZM172.987 532.857h-.6v7.714h.6v-7.714Z"/><path fill="#DBDBDB" d="M225.187 532.857h-58.8v.514h58.8v-.514Z"/><path fill="#CECECE" d="M158.287 536.971c-.178 0-.352-.045-.5-.13a.812.812 0 0 1-.332-.346.67.67 0 0 1-.051-.446.754.754 0 0 1 .246-.395.96.96 0 0 1 .461-.211c.175-.03.356-.014.52.044a.886.886 0 0 1 .404.284.696.696 0 0 1 .152.429.719.719 0 0 1-.264.545.978.978 0 0 1-.636.226Zm0-.915a.175.175 0 0 0-.114.044.135.135 0 0 0-.047.1c0 .157.329.157.329 0a.137.137 0 0 0-.049-.102.186.186 0 0 0-.119-.042Z"/><path fill="#D7D7D7" d="M233.59 542.114h-75.6v-5.657h75.6v5.657Zm-74.805-.716h74.01v-4.225h-74.01v4.225Z"/><path fill="#CECECE" d="M233.294 536.971a1.015 1.015 0 0 1-.502-.127.81.81 0 0 1-.334-.345.664.664 0 0 1-.055-.446.739.739 0 0 1 .245-.396.949.949 0 0 1 .461-.213c.174-.031.356-.016.521.043a.881.881 0 0 1 .405.284.696.696 0 0 1 .152.429.72.72 0 0 1-.261.543.973.973 0 0 1-.632.228Zm0-.915a.172.172 0 0 0-.064.011.157.157 0 0 0-.091.078.117.117 0 0 0-.013.055c0 .157.329.157.329 0a.134.134 0 0 0-.046-.1.178.178 0 0 0-.115-.044Z"/><path fill="#CECECE" d="M237.162 540.665h-82.778c-8.223 0-15.595-4.722-15.595-4.722s4.819 12.342 15.905 12.342h82.19c11.054 0 15.905-12.342 15.905-12.342s-7.388 4.722-15.627 4.722Z"/><path fill="#CECECE" d="M229.988 540.571h-68.4c1.602 3.53 4.287 7.715 8.317 7.715h51.766c4.03 0 6.747-4.185 8.317-7.715Z"/><path fill="#CECECE" d="M237.187 548.286h-82.8v2.057h82.8v-2.057Z"/><path fill="#DBDBDB" d="M237.187 548.286h-82.8v1.028h82.8v-1.028Z"/><path fill="#CECECE" d="M138.729 562.025h114.12c9.465 0 17.94-5.511 17.94-5.511s-5.586 14.4-18.267 14.4H139.056c-12.721 0-18.267-14.4-18.267-14.4s8.483 5.511 17.94 5.511Z"/><path fill="#CECECE" d="M150.488 558.057c-.178 0-.352-.045-.5-.13a.81.81 0 0 1-.331-.346.67.67 0 0 1-.052-.446.746.746 0 0 1 .247-.395.952.952 0 0 1 .46-.211 1.03 1.03 0 0 1 .52.044.878.878 0 0 1 .404.284.682.682 0 0 1 .084.724.793.793 0 0 1-.196.25.905.905 0 0 1-.292.167 1.024 1.024 0 0 1-.344.059Zm0-.916a.184.184 0 0 0-.114.045.132.132 0 0 0-.047.099c0 .157.329.157.329 0a.133.133 0 0 0-.049-.102.184.184 0 0 0-.119-.042Z"/><path fill="#DBDBDB" d="M241.988 562.686h-92.4v-5.143h92.4v5.143Zm-91.597-.651h90.794v-3.841h-90.794v3.841Z"/><path fill="#CECECE" d="M241.099 558.057a1.015 1.015 0 0 1-.502-.127.817.817 0 0 1-.335-.345.67.67 0 0 1-.054-.446.745.745 0 0 1 .245-.397.964.964 0 0 1 .46-.213c.175-.03.357-.015.521.043a.881.881 0 0 1 .405.284c.1.127.153.277.153.429a.722.722 0 0 1-.261.544.988.988 0 0 1-.632.228Zm0-.916a.184.184 0 0 0-.119.042.133.133 0 0 0-.049.102c0 .157.329.157.329 0a.132.132 0 0 0-.047-.099.184.184 0 0 0-.114-.045ZM242.59 562.171h-93.6c1.87 4.011 5.093 8.743 9.883 8.743h73.842c4.775 0 8.005-4.746 9.875-8.743ZM256.988 597.657h-122.4v3.6h122.4v-3.6ZM162.789 520h66l-1.637-1.543h-62.726L162.789 520Z"/></g><g filter="url(#f)"><circle cx="192.5" cy="-336.5" r="177.5" fill="#D9FF79"/></g><defs><filter id="a" width="588" height="213.305" x="42.194" y="413.4" color-interpolation-filters="sRGB" filterUnits="userSpaceOnUse"><feFlood flood-opacity="0" result="BackgroundImageFix"/><feBlend in="SourceGraphic" in2="BackgroundImageFix" result="shape"/><feGaussianBlur result="effect1_foregroundBlur_1_5357" stdDeviation="1.2"/></filter><filter id="b" width="868.8" height="157.5" x="-238.9" y="449.405" color-interpolation-filters="sRGB" filterUnits="userSpaceOnUse"><feFlood flood-opacity="0" result="BackgroundImageFix"/><feBlend in="SourceGraphic" in2="BackgroundImageFix" result="shape"/><feGaussianBlur result="effect1_foregroundBlur_1_5357" stdDeviation="1.2"/></filter><filter id="c" width="869.4" height="173.324" x="-238.603" y="504.38" color-interpolation-filters="sRGB" filterUnits="userSpaceOnUse"><feFlood flood-opacity="0" result="BackgroundImageFix"/><feBlend in="SourceGraphic" in2="BackgroundImageFix" result="shape"/><feGaussianBlur result="effect1_foregroundBlur_1_5357" stdDeviation="1.2"/></filter><filter id="d" width="708" height="134.062" x="-136.9" y="573.643" color-interpolation-filters="sRGB" filterUnits="userSpaceOnUse"><feFlood flood-opacity="0" result="BackgroundImageFix"/><feBlend in="SourceGraphic" in2="BackgroundImageFix" result="shape"/><feGaussianBlur result="effect1_foregroundBlur_1_5357" stdDeviation="1.2"/></filter><filter id="e" width="154.8" height="116.914" x="118.389" y="491.886" color-interpolation-filters="sRGB" filterUnits="userSpaceOnUse"><feFlood flood-opacity="0" result="BackgroundImageFix"/><feBlend in="SourceGraphic" in2="BackgroundImageFix" result="shape"/><feGaussianBlur result="effect1_foregroundBlur_1_5357" stdDeviation="1.2"/></filter><filter id="f" width="1475" height="1475" x="-544.999" y="-1074" color-interpolation-filters="sRGB" filterUnits="userSpaceOnUse"><feFlood flood-opacity="0" result="BackgroundImageFix"/><feBlend in="SourceGraphic" in2="BackgroundImageFix" result="shape"/><feGaussianBlur result="effect1_foregroundBlur_1_5357" stdDeviation="280"/></filter></defs></svg>