<svg xmlns="http://www.w3.org/2000/svg" width="744" height="700" fill="none"><g filter="url(#a)"><path fill="#F1F1F1" fill-rule="evenodd" d="M395.797 381.407c-11.2 2.56-34 24.533-44 35.2v178h197.999c-1.2-44.134-5.28-134.88-12-144.8-2.404-3.55-5.989-7.789-9.863-12.368-9.657-11.417-21.108-24.955-20.537-35.232l.042-.742c.823-14.766 2.617-46.966-5.642-53.258-6.72-5.12-14.533-23.2-17.6-31.6-7.106-.374-23.657 15.341-31.662 22.943l-1.537 1.457c-7.2 6.8-41.2 37.2-55.2 40.4Zm619.243-33.2c1.59 4.8 6.43 15.36 13.15 19.2 8.4 4.8 5.2 14.8 0 24.8-3.35 6.458 1.46 17.255 5.62 26.571 2.28 5.108 4.36 9.771 4.78 13.029.96 7.36-10 111.6-15.6 162.8h106.4v-168.4c-7.6-3.867-24.72-12.8-32.4-17.6-5.85-3.662-14.99-16.414-22.5-26.887-4.79-6.686-8.91-12.443-11.1-14.313-3.6-3.092-7.87-3.197-12.38-3.307-2.49-.061-5.05-.124-7.62-.693-4.22-.939-8.99-5.595-13.11-9.606-2.9-2.827-5.47-5.333-7.29-5.994-2.2-.8-5-.7-7.95.4Z" clip-rule="evenodd"/><path fill="#EAEAEA" d="M558.596 348.207c-6 0-23.6.4-34-7.2l-.182-.134c-10.478-7.657-32.662-23.869-40.218-24.266 3.067 8.4 10.88 26.48 17.6 31.6 8.259 6.292 6.465 38.492 5.642 53.258l-.042.742c-.571 10.277 10.88 23.815 20.537 35.232 3.874 4.579 7.459 8.818 9.863 12.368 6.72 9.92 10.8 100.666 12 144.8h473.194c5.6-51.2 16.56-155.44 15.6-162.8-.42-3.258-2.5-7.921-4.78-13.029-4.16-9.316-8.97-20.113-5.62-26.571 5.2-10 8.4-20 0-24.8-6.72-3.84-11.56-14.4-13.15-19.2-2.95 1.1-6.05 3.2-8.85 6.4-5.6 6.4-23.995 12.8-32.795 12.8s-28.4-.4-36 4.8c-7.6 5.2-14.4 6.8-24.4 11.2-10 4.4-10.4 8.8-33.6 25.2-23.2 16.4-129.599 5.6-137.199-16.4-7.6-22-14.8-20.4-20-20-5.2.4-12 20-18.8 24.4-6.8 4.4-42.4 2-46.4-4.4s-29.2-14-37.6-13.2c-8.4.8-26.8-3.6-33.6-14.4-6.8-10.8-21.2-16.4-27.2-16.4Z"/></g><g filter="url(#b)"><path fill="#ECECEC" fill-rule="evenodd" d="M57.4 453.806c-16.32 7.36-60.4 40.667-80.4 56.4v58h322.399c-1.067-17.2-5.92-54.8-16.8-67.6-11.717-13.784-10.964-24.896-10.531-31.291.07-1.027.131-1.933.131-2.709 0-2.75 3.957-5.211 8.362-7.952 4.564-2.838 9.61-5.977 11.238-10.048 2.921-7.302-6.49-16.605-14.847-24.865a528.54 528.54 0 0 1-2.353-2.335c-5.166-5.165-9.918-12.261-14.5-19.102-3.223-4.812-6.361-9.498-9.5-13.298-6.08-7.36-6-18.591-5.2-23.287-6.055 2.287-13.002 7.609-17.6 11.287-6 4.8-25.6 6-32.4 6-4.749 0-10.084 4.488-15.731 9.239-2.439 2.052-4.935 4.152-7.469 5.961-8.4 6-29.199 7.6-35.999 7.6-6.8 0-23.6 11.2-32.4 19.2-8.8 8-26 19.6-46.4 28.8Zm777.597-75.263c-4.8.955-14.24 4.303-13.6 10.063.8 7.2 8 8.4 13.6 8.4s14.8 8 15.2 16.4c.039.805.073 1.621.108 2.443a.244.244 0 0 1 .001.027c.329 7.745.679 15.995 4.291 20.33 4 4.8 24.4 12.8 31.2 14.8 6.8 2 7.6 10.8 5.6 28-1.6 13.76-9.466 65.2-13.2 89.2H1129v-200.8c-8.4 15.6-82.4 49.6-91.2 49.6-.68 0-1.75-.004-3.14-.011-16.58-.074-79.45-.356-86.463 4.811-7.6 5.6-24.4 9.2-32.8 9.2-8.4 0-25.6-12.4-29.6-17.6-4-5.2-19.6-21.2-22.4-21.2-.458 0-1.119.054-1.922.119-4.109.332-11.932.965-15.278-3.719-2.598-3.638-7.392-7.614-11.2-10.063Z" clip-rule="evenodd"/><path fill="#E5E5E5" d="M272.199 383.006c-4.8-10-14.8-18.4-21.6-18.4-1.589 0-3.353.416-5.2 1.113-.8 4.696-.88 15.927 5.2 23.287 3.139 3.8 6.277 8.486 9.5 13.298 4.582 6.841 9.334 13.937 14.5 19.102a528.54 528.54 0 0 0 2.353 2.335c8.357 8.26 17.768 17.563 14.847 24.865-1.628 4.071-6.674 7.21-11.238 10.048-4.405 2.741-8.362 5.202-8.362 7.952 0 .776-.061 1.682-.131 2.709-.433 6.395-1.186 17.507 10.531 31.291 10.88 12.8 15.733 50.4 16.8 67.6h578.798c3.734-24 11.6-75.44 13.2-89.2 2-17.2 1.2-26-5.6-28s-27.2-10-31.2-14.8c-3.612-4.335-3.962-12.585-4.291-20.33l-.001-.027c-.035-.822-.069-1.638-.108-2.443-.4-8.4-9.6-16.4-15.2-16.4s-12.8-1.2-13.6-8.4c-.64-5.76 8.8-9.108 13.6-10.063-2.052-1.32-3.819-2.196-4.8-2.337-2.8-.4-11.199.4-16.799 5.6-5.6 5.2-14.8 14-18.4 14-3.6 0-8.8-1.6-16 1.2-7.2 2.8-21.6 19.6-27.6 24.8-6 5.2-36.4 6-40.4 4.4-4-1.6-10.4-2.8-16.4-2.4-6 .4-9.2 8.8-20 9.6-10.8.8-25.6 4.8-34.4 14.4-8.8 9.6-22.4 18.8-30.4 18.8s-14.8.8-26.8 5.6-72-3.2-74.4-8.4c-2.4-5.2-33.999-21.2-39.999-23.6-6-2.4-20 1.2-30.4 2.4-10.4 1.2-18.8-.8-22.4-4.4-3.6-3.6-10.8-2.4-14.4-2.8-3.6-.4-9.6-13.2-17.6-16.8-8-3.6-19.2-3.2-26.4-4-7.2-.8-16.4-12.4-26-16.4-9.6-4-21.6 2.8-27.6 4-6 1.2-26.8-9.2-31.6-19.2Z"/></g><g filter="url(#c)"><path fill="#E5E5E5" fill-rule="evenodd" d="M47.398 511.806c-4.16 2.88-48.4 52.934-70 77.6v73.2h611.199c-1.78-9.464-4.786-34.387-7.233-54.672-1.587-13.15-2.938-24.352-3.567-28.128-2-12-24-41.6-27.2-44.4-3.2-2.8-10-21.2-4.4-27.6 5.6-6.4 6-12.799 4.4-16.799-.762-1.906-4.066-6.353-7.62-11.136-3.906-5.258-8.114-10.923-9.58-14.065-2.24-4.8 2.266-12.656 4.8-15.985-3.593.455-7.169 1.5-10.4 3.186-9.2 4.8-17.2 7.2-27.6 7.2-10.4 0-40 19.2-46.8 24.4-6.8 5.2-29.6 12.4-35.6 6.4s-18.8-8.4-22.8-8.4-11.6 6.8-14.8 10.8c-3.2 4-13.6 6.8-21.6 1.6-8-5.2-24.4-8.4-30.8-8.4-5.889 0-19.231 7.113-26.621 11.053l-1.778.947c-6.8 3.6-25.2 9.6-35.6 12-10.4 2.4-26.8-4.8-34.4-12-7.6-7.2-23.2-12-28.8-12-5.6 0-12 4-18.4 8.4-6.4 4.4-14.8 8.4-21.6 8.8-6.8.4-20.8-6-24.4-8.8-3.6-2.8-18.4-4.4-22.4-4.4s-14.8 1.2-20 4.4c-5.2 3.2-18 7.199-24.8 5.999-5.648-.996-13.228 4.63-18.613 8.628-1.099.815-2.106 1.563-2.987 2.172Zm991.602-73.6c-1.2 6.934-2.88 22.8 0 30.8 3.6 10 4.8 24 2.4 42-1.8 13.488 1.79 23.157 4.71 31.028v.002c.98 2.633 1.88 5.065 2.49 7.37.82 3.167 3.02 9.177 5.55 16.09 4.82 13.17 10.85 29.615 10.85 35.91 0 7.68-1.07 52-1.6 61.2h66.8v-171.6c-7.47-6.4-25.44-20.64-37.6-26.4-5.57-2.636-13.23-6.667-21.07-10.796-13.58-7.148-27.72-14.589-32.53-15.604Z" clip-rule="evenodd"/><path fill="#DEDEDE" d="M582.997 471.806c-2-6-19.6-14.399-26.8-18.799-4.672-2.855-11.363-4.026-18-3.186-2.534 3.329-7.04 11.185-4.8 15.985 1.466 3.142 5.674 8.807 9.58 14.065 3.554 4.783 6.858 9.23 7.62 11.136 1.6 4 1.2 10.399-4.4 16.799-5.6 6.4 1.2 24.8 4.4 27.6 3.2 2.8 25.2 32.4 27.2 44.4.629 3.776 1.98 14.978 3.567 28.128 2.447 20.285 5.453 45.208 7.233 54.672H1063.4c.53-9.2 1.6-53.52 1.6-61.2 0-6.295-6.03-22.74-10.85-35.91-2.53-6.913-4.73-12.923-5.55-16.09-.61-2.305-1.51-4.737-2.49-7.37v-.002c-2.92-7.871-6.51-17.54-4.71-31.028 2.4-18 1.2-32-2.4-42-2.88-8-1.2-23.866 0-30.8-7.6-1.6-22.8 3.2-33.2 14.8-10.405 11.6-25.204 17.2-30.804 14.4-5.6-2.8-22.4-5.6-31.2-2.8s-15.6 4.8-25.2 4.4c-9.6-.4-22.8 6.4-27.2 10-4.4 3.6-14 12-19.6 12-5.6 0-17.6 1.6-21.6 8.8-4 7.2-14.8 28-24 25.2-9.2-2.8-24.8-4.4-31.6-4-6.8.4-25.6-.4-28.4-2.8-2.8-2.4-8.4-7.2-13.6-4-5.2 3.2-13.2 2.8-16.4 2.8-3.2 0-7.6-4-14-6s-72.4-.4-76.799 0c-4.4.4-12-8.8-18.8-8.8-6.8 0-10.8-6.4-11.6-11.2-.8-4.8-9.6-10.4-15.6-10.8-6-.4-14.4-2.4-16.4-8.4Z"/></g><g filter="url(#d)"><path fill="#DDD" fill-rule="evenodd" d="M164.6 656.607c-14.72 5.76-40.533 33.066-51.6 46h256.399c-6.8-12.4-12.4-42.4-12.8-48.8-.238-3.808 4.339-11.157 8.76-18.254 3.008-4.831 5.944-9.545 7.24-12.946 2.307-6.055.665-15.019-1.181-25.095-.715-3.903-1.46-7.973-2.019-12.105-2-14.8 5.6-18.4 9.6-19.6 4-1.2 9.6-4 11.2-10.4 1.28-5.12-.533-14.504-1.6-18.555-5.68.408-12.198 1.221-19.2 2.155-18 2.4-36.8 10.4-44.8 16.4-3.581 2.686-5.96 7.377-8.537 12.457-3.178 6.266-6.656 13.124-13.063 17.543-7.611 5.249-11.778 5.159-17.246 5.042-2.866-.061-6.09-.13-10.353.558-7.883 1.271-14.957 11.27-21.737 20.854-3.885 5.492-7.674 10.848-11.463 14.346-7.315 6.751-33.624 15.482-54.993 22.573-9.013 2.991-17.148 5.69-22.607 7.827Zm753.998-116.4c2.666 8.266 6.16 26.08-1.2 31.2-9.2 6.4-17.6 8.8-31.6 7.6-14-1.2-23.2 22.4-22.4 27.2.64 3.84 5.066 65.866 7.2 96.4H1050.6v-54.8c-5.07-5.467-15.92-16.48-18.8-16.8-3.6-.4-15.6-3.2-18-8.4-.66-1.416-1.37-3.305-2.16-5.394-2.1-5.587-4.75-12.604-8.24-15.806-2.95-2.701-10.116-4.95-16.137-6.839-3.787-1.189-7.121-2.235-8.666-3.161-1.204-.723-3.314-2.243-5.774-4.015-5.712-4.114-13.309-9.585-15.825-9.585-.668 0-1.432.027-2.252.057-3.599.129-8.268.297-10.548-1.657-1.637-1.403-8.877-11.963-15.33-21.375-4.586-6.689-8.775-12.797-10.27-14.625Z" clip-rule="evenodd"/><path fill="#D3D3D3" d="M418.999 568.607c-6.8-4.8-5.6-25.6-11.2-29.6-3.421-2.444-10.278-2.798-19.2-2.155 1.067 4.051 2.88 13.435 1.6 18.555-1.6 6.4-7.2 9.2-11.2 10.4-4 1.2-11.6 4.8-9.6 19.6.559 4.132 1.304 8.202 2.019 12.105 1.846 10.076 3.488 19.04 1.181 25.095-1.296 3.401-4.232 8.115-7.24 12.946-4.421 7.097-8.998 14.446-8.76 18.254.4 6.4 6 36.4 12.8 48.8h501.199c-2.134-30.534-6.56-92.56-7.2-96.4-.8-4.8 8.4-28.4 22.4-27.2 14 1.2 22.4-1.2 31.6-7.6 7.36-5.12 3.866-22.934 1.2-31.2-3.6-4.4-20.4-13.6-29.6-8.4-9.2 5.2-27.6 10.8-34.4 10.8-6.8 0-14.4-3.6-23.6-3.6-9.2 0-14.4 0-28 5.6-13.6 5.599-21.6 19.2-44.8 20.4-23.2 1.2-39.2.8-46.4 3.6-7.2 2.8-28.8 38-35.6 41.2-6.8 3.2-13.6-3.2-24.4 3.2-10.8 6.4-32.799 24-43.199 24-10.4 0-27.6-30-45.6-30.4-18-.4-36.8-21.2-46-21.2-9.2 0-27.6 5.6-40 5.6-12.4 0-51.2-17.6-58-22.4Z"/></g><g fill="#D9D9D9" filter="url(#e)"><path d="M-18.62 470.555c-8.798 4.197-4.792 13.537-1.69 17.682l2.649 165.227c-8.376 6.743-2.986 15.333.756 18.785l30.375-1.223c5.166-6.933 1.648-15.412-.756-18.785L8.067 487.095c7.391-7.344 2.608-14.784-.708-17.586l-25.979 1.046ZM-19.524 676.758c-4.72 2.112-4.096 7.638-3.195 10.137l39.566-1.593c.382-6.421-3.573-9.197-5.598-9.783l-30.773 1.239ZM-17.933 278.772c-7.28-5.792-3.441-12.538-.612-15.188l23.98-.965c6.666 6.457 2.652 12.837-.187 15.22l2.425 169.639c7.37 8.031 2.733 14.836-.507 17.235l-26.778 1.078c-7.126-9.962-2.93-16.429.06-18.417l1.619-168.602ZM4.475 258.654c6.88-4.12 3.76-12.695 1.339-16.467L11.438 43.8l-22.781.917-9.621 198.548c-4.526 6.908-.38 13.76 2.258 16.322l23.181-.933Z"/></g><g fill="#D9D9D9" filter="url(#f)"><path d="M39.648 506.526c8.651 4.493 4.332 13.692 1.091 17.73l-8.231 165.043c8.143 7.021 2.465 15.425-1.39 18.748L.8 705.799c-4.928-7.104-1.126-15.459 1.391-18.749l10.226-164.895c-7.138-7.589-2.107-14.863 1.302-17.552l25.929 1.923ZM33.583 712.642c4.644 2.27 3.835 7.772 2.85 10.239l-39.49-2.929c-.165-6.43 3.882-9.071 5.925-9.588l30.715 2.278ZM45.444 314.83c7.47-5.543 3.862-12.415 1.124-15.159l-23.934-1.775c-6.88 6.228-3.084 12.74-.327 15.218L14.15 482.575c-7.637 7.776-3.233 14.734-.076 17.241l26.726 1.983c7.46-9.715 3.484-16.321.564-18.409l4.08-168.56ZM23.727 293.966c-6.736-4.35-3.327-12.814-.78-16.503L24.03 79l22.737 1.686 2.906 198.76c4.29 7.056-.086 13.764-2.81 16.236l-23.136-1.716Z"/></g><g fill="#D9D9D9" filter="url(#g)"><path d="M115.798 242.2h-10l35.2-197.6-25.2 197.6ZM114.598 249h-8.8l-26.4 156h12.8l22.4-156ZM89.398 411.8h-10l-44 270.4h13.6l40.4-270.4Z"/></g><g fill="#C6C6C6" filter="url(#h)"><path d="M62.202 408.6c-3.52 1.28-10.534 10.933-13.6 15.6 3.733-2.4 12.08-8 15.6-11.2 3.52-3.2 11.066-2.933 14.4-2.4-2.4-4-12-3.6-16.4-2ZM57.801 437.8c2.934-7.466 11.2-22.64 20.8-23.6-6 5.867-18.56 18.8-20.8 23.6ZM111.001 433.4c-2.88-13.12-15.6-19.066-21.6-20.4v3.6c6.4.32 17.067 11.334 21.6 16.8ZM88.201 419.4c2.934 6.134 7.92 23.76 4.4 45.2-1.866-13.533-5.36-41.52-4.4-45.2Z"/></g><g fill="#C6C6C6" filter="url(#i)"><path d="M-18.688 415.531c2.185 3.042 13.376 7.182 18.698 8.872-3.32-2.945-10.97-9.465-15.003-11.988-4.033-2.523-5.818-9.86-6.206-13.214-3.202 3.393-.22 12.527 2.512 16.33ZM10.614 411.866c-7.982-.803-24.826-4.656-28.347-13.639 7.27 4.189 23.12 12.782 28.347 13.639ZM-8.015 361.841c-11.852 6.322-14.135 20.177-13.796 26.314l3.466-.974c-1.423-6.248 6.293-19.497 10.33-25.34ZM-15.325 387.578c5.111-4.483 20.731-14.053 42.324-16.465-12.523 5.459-38.521 16.394-42.324 16.465Z"/></g><g fill="#C6C6C6" filter="url(#j)"><path d="M141.4 181.744c3.52 1.28 10.533 10.934 13.6 15.6-3.733-2.4-12.08-8-15.6-11.2-3.52-3.2-11.067-2.933-14.4-2.4 2.4-4 12-3.6 16.4-2ZM145.8 210.944c-2.933-7.466-11.2-22.64-20.8-23.6 6 5.867 18.56 18.8 20.8 23.6ZM92.6 206.544c2.88-13.12 15.6-19.066 21.6-20.4v3.6c-6.4.32-17.067 11.334-21.6 16.8ZM115.4 192.544c-2.933 6.134-7.92 23.76-4.4 45.2 1.867-13.533 5.36-41.52 4.4-45.2Z"/></g><g fill="#C6C6C6" filter="url(#k)"><path d="M6.601 218.2c10.534 4.667 32.72 20.32 37.2 45.6-11.333-13.867-34.64-42.4-37.2-45.6ZM-23.398 237.8l14-15.2v15.2l-14 16v-16ZM60.201 237.8c-1.28-5.44-14.666-18.8-21.2-24.8v9.6c3.84 0 15.734 10.133 21.2 15.2Z"/></g><g fill="#CFCFCF" filter="url(#l)"><path d="M53.403 597.007c-17.6-18.88-57.467-12.134-75.2-6.4v111.6h449.999c-44.4-20-68-27.6-98.8-24-30.8 3.6-46.8-9.6-53.2-15.2-6.4-5.6-29.6-9.2-42-4.8-12.4 4.4-29.6 16.4-46.399 16.4-16.8 0-44-29.6-52.8-31.6-8.8-2-34.8-.4-46-6.4-11.2-6-13.6-16-35.6-39.6ZM643.001 685.407c-9.6 4.48-16.266 13.066-18.4 16.8H1129v-100.4l-57.2 26.4c-15.2 8-48.96 25.92-62.4 33.6-16.8 9.6-52.4 12.4-54.8 5.6-2.4-6.8-4.4-26.4-7.6-30.4-3.2-4-35.2-2-45.6-2.4-10.4-.4-19.599-13.2-22.399-16l-.201-.201c-3.215-3.224-16.942-16.991-32.199-16.599-15.6.4-39.2 20.8-42 28-2.8 7.2-.8 21.6-5.2 30.4-4.4 8.8-26 4.8-33.2 5.2-7.2.4-20.8 8.8-28.8 8.8s-18-4.4-28 0-16 8.4-26.8 11.2c-10.8 2.8-27.6-5.6-39.6 0Z"/></g><g filter="url(#m)"><path fill="#CECECE" d="M619.79 649.4h-132.8V691h132.8v-41.6Z"/><path fill="#DBDBDB" d="M562.19 664.6h-17.6V691h17.6v-26.4Z"/><path fill="#CECECE" d="M508.793 570.346h89.238c11.057 0 20.959-7.346 20.959-7.346s-6.48 19.2-21.387 19.2h-88.425c-14.864 0-21.387-19.2-21.387-19.2s9.955 7.346 21.002 7.346Z"/><path fill="#CECECE" d="M553.374 570.2H515.79c2.03 5.49 5.54 12 10.763 12h53.675c5.222 0 8.732-6.51 10.762-12h-37.616ZM604.59 614.2h-102.4v21.6h102.4v-21.6ZM619.79 649.4h-132.8v4.8h132.8v-4.8Z"/><path fill="#DBDBDB" d="M505.39 649.4h-7.999v32.8h7.999v-32.8ZM506.99 682.2h-11.199v8.8h11.199v-8.8Z"/><path fill="#CECECE" d="M650.99 696.6H455.791v8H650.99v-8ZM592.59 582.2h-78.4v20h78.4v-20Z"/><path fill="#CECECE" d="M596.59 582.2h-86.4v3.2h86.4v-3.2Z"/><path fill="#DBDBDB" d="M596.59 582.2h-86.4v1.6h86.4v-1.6ZM601.39 682.2h8v-32.8h-8v32.8ZM599.79 691h11.2v-8.8h-11.2v8.8ZM525.39 649.4h-8v32.8h8v-32.8ZM526.99 682.2h-11.2v8.8h11.2v-8.8ZM581.39 682.2h8v-32.8h-8v32.8ZM579.79 691h11.2v-8.8h-11.2v8.8Z"/><path fill="#CECECE" d="m553.396 530.2-44.005 40h87.999l-43.994-40Z"/><path fill="#CECECE" d="m553.396 540.6-32.806 29.6h65.6l-32.794-29.6ZM624.59 649.4H482.191v4.8H624.59v-4.8Z"/><path fill="#DBDBDB" d="M624.59 649.4H482.191v1.6H624.59v-1.6ZM594.19 623h-1.6v12.8h1.6V623ZM566.99 623h-.8v12.8h.8V623ZM540.59 623h-.8v12.8h.8V623ZM514.19 623h-1.6v12.8h1.6V623ZM604.59 622.2h-102.4v.8h102.4v-.8Z"/><path fill="#D7D7D7" d="M584.59 590.2h-.8v12h.8v-12ZM563.79 590.2h-.8v12h.8v-12ZM543.79 590.2h-.8v12h.8v-12ZM522.99 590.2h-.8v12h.8v-12Z"/><path fill="#DBDBDB" d="M592.59 590.2h-78.4v.8h78.4v-.8Z"/><path fill="#CECECE" d="M503.39 596.6a1.196 1.196 0 0 1-1.108-.741 1.2 1.2 0 1 1 1.108.741Zm0-1.424a.222.222 0 0 0-.214.224c0 .244.439.244.439 0a.224.224 0 0 0-.225-.224Z"/><path fill="#D7D7D7" d="M603.79 604.6h-100.8v-8.8h100.8v8.8Zm-99.739-1.114h98.679v-6.572h-98.679v6.572Z"/><path fill="#CECECE" d="M603.4 596.6a1.201 1.201 0 0 1-.862-2.045 1.2 1.2 0 1 1 .862 2.045Zm0-1.424a.227.227 0 0 0-.159.065.22.22 0 0 0-.048.073.216.216 0 0 0-.017.086c0 .244.439.244.439 0a.225.225 0 0 0-.215-.224Z"/><path fill="#CECECE" d="M608.554 602.346h-110.37c-10.964 0-20.793-7.346-20.793-7.346s6.425 19.2 21.206 19.2h109.586c14.739 0 21.207-19.2 21.207-19.2s-9.85 7.346-20.836 7.346Z"/><path fill="#CECECE" d="M598.99 602.2h-91.199c2.136 5.49 5.715 12 11.088 12h69.022c5.374 0 8.995-6.51 11.089-12ZM608.59 614.2H498.191v3.2H608.59v-3.2Z"/><path fill="#DBDBDB" d="M608.59 614.2H498.191v1.6H608.59v-1.6Z"/><path fill="#CECECE" d="M477.311 635.573H629.47c12.62 0 23.92-8.573 23.92-8.573s-7.448 22.4-24.356 22.4H477.747c-16.961 0-24.356-22.4-24.356-22.4s11.31 8.573 23.92 8.573Z"/><path fill="#CECECE" d="M492.991 629.4a1.197 1.197 0 0 1-1.177-1.434 1.207 1.207 0 0 1 .942-.943 1.204 1.204 0 0 1 1.435 1.177 1.202 1.202 0 0 1-1.2 1.2Zm0-1.424a.222.222 0 0 0-.215.224c0 .244.439.244.439 0a.224.224 0 0 0-.224-.224Z"/><path fill="#DBDBDB" d="M614.99 636.6H491.791v-8H614.99v8Zm-122.129-1.012H613.92v-5.975H492.861v5.975Z"/><path fill="#CECECE" d="M613.8 629.4a1.201 1.201 0 0 1-.862-2.045 1.198 1.198 0 0 1 1.849.177 1.196 1.196 0 0 1-.145 1.513 1.195 1.195 0 0 1-.842.355Zm0-1.424a.224.224 0 0 0-.224.224c0 .244.439.244.439 0a.225.225 0 0 0-.215-.224ZM615.79 635.8h-124.8c2.494 6.239 6.791 13.6 13.178 13.6h98.456c6.365 0 10.673-7.382 13.166-13.6ZM634.99 691H471.791v5.6H634.99V691ZM509.391 570.2h87.999l-2.183-2.4h-83.634l-2.182 2.4Z"/></g><g filter="url(#n)"><ellipse cx="372.199" cy="-413.8" fill="#D9FF79" rx="215.199" ry="215.2"/></g><defs><filter id="a" width="783.998" height="284.407" x="348.597" y="313.4" color-interpolation-filters="sRGB" filterUnits="userSpaceOnUse"><feFlood flood-opacity="0" result="BackgroundImageFix"/><feBlend in="SourceGraphic" in2="BackgroundImageFix" result="shape"/><feGaussianBlur result="effect1_foregroundBlur_1_3358" stdDeviation="1.6"/></filter><filter id="b" width="1158.4" height="210" x="-26.2" y="361.406" color-interpolation-filters="sRGB" filterUnits="userSpaceOnUse"><feFlood flood-opacity="0" result="BackgroundImageFix"/><feBlend in="SourceGraphic" in2="BackgroundImageFix" result="shape"/><feGaussianBlur result="effect1_foregroundBlur_1_3358" stdDeviation="1.6"/></filter><filter id="c" width="1159.2" height="231.099" x="-25.802" y="434.707" color-interpolation-filters="sRGB" filterUnits="userSpaceOnUse"><feFlood flood-opacity="0" result="BackgroundImageFix"/><feBlend in="SourceGraphic" in2="BackgroundImageFix" result="shape"/><feGaussianBlur result="effect1_foregroundBlur_1_3358" stdDeviation="1.6"/></filter><filter id="d" width="943.997" height="178.749" x="109.8" y="527.058" color-interpolation-filters="sRGB" filterUnits="userSpaceOnUse"><feFlood flood-opacity="0" result="BackgroundImageFix"/><feBlend in="SourceGraphic" in2="BackgroundImageFix" result="shape"/><feGaussianBlur result="effect1_foregroundBlur_1_3358" stdDeviation="1.6"/></filter><filter id="e" width="47.241" height="649.494" x="-27.168" y="40.6" color-interpolation-filters="sRGB" filterUnits="userSpaceOnUse"><feFlood flood-opacity="0" result="BackgroundImageFix"/><feBlend in="SourceGraphic" in2="BackgroundImageFix" result="shape"/><feGaussianBlur result="effect1_foregroundBlur_1_3358" stdDeviation="1.6"/></filter><filter id="f" width="60.934" height="650.282" x="-6.262" y="75.8" color-interpolation-filters="sRGB" filterUnits="userSpaceOnUse"><feFlood flood-opacity="0" result="BackgroundImageFix"/><feBlend in="SourceGraphic" in2="BackgroundImageFix" result="shape"/><feGaussianBlur result="effect1_foregroundBlur_1_3358" stdDeviation="1.6"/></filter><filter id="g" width="112" height="644" x="32.198" y="41.4" color-interpolation-filters="sRGB" filterUnits="userSpaceOnUse"><feFlood flood-opacity="0" result="BackgroundImageFix"/><feBlend in="SourceGraphic" in2="BackgroundImageFix" result="shape"/><feGaussianBlur result="effect1_foregroundBlur_1_3358" stdDeviation="1.6"/></filter><filter id="h" width="68.8" height="63.544" x="45.402" y="404.256" color-interpolation-filters="sRGB" filterUnits="userSpaceOnUse"><feFlood flood-opacity="0" result="BackgroundImageFix"/><feBlend in="SourceGraphic" in2="BackgroundImageFix" result="shape"/><feGaussianBlur result="effect1_foregroundBlur_1_3358" stdDeviation="1.6"/></filter><filter id="i" width="55.984" height="68.962" x="-25.785" y="358.641" color-interpolation-filters="sRGB" filterUnits="userSpaceOnUse"><feFlood flood-opacity="0" result="BackgroundImageFix"/><feBlend in="SourceGraphic" in2="BackgroundImageFix" result="shape"/><feGaussianBlur result="effect1_foregroundBlur_1_3358" stdDeviation="1.6"/></filter><filter id="j" width="68.8" height="63.544" x="89.4" y="177.4" color-interpolation-filters="sRGB" filterUnits="userSpaceOnUse"><feFlood flood-opacity="0" result="BackgroundImageFix"/><feBlend in="SourceGraphic" in2="BackgroundImageFix" result="shape"/><feGaussianBlur result="effect1_foregroundBlur_1_3358" stdDeviation="1.6"/></filter><filter id="k" width="90" height="57.2" x="-26.598" y="209.8" color-interpolation-filters="sRGB" filterUnits="userSpaceOnUse"><feFlood flood-opacity="0" result="BackgroundImageFix"/><feBlend in="SourceGraphic" in2="BackgroundImageFix" result="shape"/><feGaussianBlur result="effect1_foregroundBlur_1_3358" stdDeviation="1.6"/></filter><filter id="l" width="1157.2" height="124.03" x="-24.997" y="581.376" color-interpolation-filters="sRGB" filterUnits="userSpaceOnUse"><feFlood flood-opacity="0" result="BackgroundImageFix"/><feBlend in="SourceGraphic" in2="BackgroundImageFix" result="shape"/><feGaussianBlur result="effect1_foregroundBlur_1_3358" stdDeviation="1.6"/></filter><filter id="m" width="206.399" height="180.8" x="450.191" y="527" color-interpolation-filters="sRGB" filterUnits="userSpaceOnUse"><feFlood flood-opacity="0" result="BackgroundImageFix"/><feBlend in="SourceGraphic" in2="BackgroundImageFix" result="shape"/><feGaussianBlur result="effect1_foregroundBlur_1_3358" stdDeviation="1.6"/></filter><filter id="n" width="1550.4" height="1550.4" x="-402.999" y="-1189" color-interpolation-filters="sRGB" filterUnits="userSpaceOnUse"><feFlood flood-opacity="0" result="BackgroundImageFix"/><feBlend in="SourceGraphic" in2="BackgroundImageFix" result="shape"/><feGaussianBlur result="effect1_foregroundBlur_1_3358" stdDeviation="280"/></filter></defs></svg>